<?xml version="1.0" encoding="UTF-8" standalone="no"?>
<!-- Created with Inkscape (http://www.inkscape.org/) -->

<svg
   xmlns:dc="http://purl.org/dc/elements/1.1/"
   xmlns:cc="http://creativecommons.org/ns#"
   xmlns:rdf="http://www.w3.org/1999/02/22-rdf-syntax-ns#"
   xmlns:svg="http://www.w3.org/2000/svg"
   xmlns="http://www.w3.org/2000/svg"
   xmlns:sodipodi="http://sodipodi.sourceforge.net/DTD/sodipodi-0.dtd"
   xmlns:inkscape="http://www.inkscape.org/namespaces/inkscape"
   version="1.1"
   id="svg815"
   width="783.83942"
   height="186.50372"
   viewBox="0 0 783.83942 186.50372"
   sodipodi:docname="simoneloretto.svg"
   inkscape:version="0.92.3 (2405546, 2018-03-11)"
   inkscape:export-filename="C:\Users\Casa\Downloads\imagens simone\simone.png"
   inkscape:export-xdpi="95"
   inkscape:export-ydpi="95">
  <metadata
     id="metadata821">
    <rdf:RDF>
      <cc:Work
         rdf:about="">
        <dc:format>image/svg+xml</dc:format>
        <dc:type
           rdf:resource="http://purl.org/dc/dcmitype/StillImage" />
        <dc:title></dc:title>
      </cc:Work>
    </rdf:RDF>
  </metadata>
  <defs
     id="defs819">
    <filter
       inkscape:collect="always"
       style="color-interpolation-filters:sRGB"
       id="filter8313"
       x="-0.052160598"
       width="1.1043212"
       y="-0.030754684"
       height="1.0615094">
      <feGaussianBlur
         inkscape:collect="always"
         stdDeviation="2.1371105"
         id="feGaussianBlur8315" />
    </filter>
    <filter
       inkscape:collect="always"
       style="color-interpolation-filters:sRGB"
       id="filter8317"
       x="-0.17119379"
       width="1.3423876"
       y="-0.20789631"
       height="1.4157926">
      <feGaussianBlur
         inkscape:collect="always"
         stdDeviation="2.1371105"
         id="feGaussianBlur8319" />
    </filter>
    <filter
       inkscape:collect="always"
       style="color-interpolation-filters:sRGB"
       id="filter8321"
       x="-1.49871"
       width="3.9974201"
       y="-1.9755744"
       height="4.951149">
      <feGaussianBlur
         inkscape:collect="always"
         stdDeviation="2.1371105"
         id="feGaussianBlur8323" />
    </filter>
    <filter
       inkscape:collect="always"
       style="color-interpolation-filters:sRGB"
       id="filter8325"
       x="-0.080780618"
       width="1.1615613"
       y="-0.12933211"
       height="1.2586643">
      <feGaussianBlur
         inkscape:collect="always"
         stdDeviation="2.1371105"
         id="feGaussianBlur8327" />
    </filter>
    <filter
       inkscape:collect="always"
       style="color-interpolation-filters:sRGB"
       id="filter8329"
       x="-0.13304275"
       width="1.2660855"
       y="-0.19393259"
       height="1.3878652">
      <feGaussianBlur
         inkscape:collect="always"
         stdDeviation="2.1371105"
         id="feGaussianBlur8331" />
    </filter>
    <filter
       inkscape:collect="always"
       style="color-interpolation-filters:sRGB"
       id="filter8333"
       x="-0.10944282"
       width="1.2188855"
       y="-0.12887157"
       height="1.2577431">
      <feGaussianBlur
         inkscape:collect="always"
         stdDeviation="2.1371105"
         id="feGaussianBlur8335" />
    </filter>
    <filter
       inkscape:collect="always"
       style="color-interpolation-filters:sRGB"
       id="filter8337"
       x="-0.13624617"
       width="1.2724924"
       y="-0.11245189"
       height="1.2249038">
      <feGaussianBlur
         inkscape:collect="always"
         stdDeviation="2.1371105"
         id="feGaussianBlur8339" />
    </filter>
    <filter
       inkscape:collect="always"
       style="color-interpolation-filters:sRGB"
       id="filter8341"
       x="-0.064593635"
       width="1.1291873"
       y="-0.032365263"
       height="1.0647305">
      <feGaussianBlur
         inkscape:collect="always"
         stdDeviation="2.1371105"
         id="feGaussianBlur8343" />
    </filter>
    <filter
       inkscape:collect="always"
       style="color-interpolation-filters:sRGB"
       id="filter8345"
       x="-0.13304275"
       width="1.2660855"
       y="-0.19393259"
       height="1.3878652">
      <feGaussianBlur
         inkscape:collect="always"
         stdDeviation="2.1371105"
         id="feGaussianBlur8347" />
    </filter>
    <filter
       inkscape:collect="always"
       style="color-interpolation-filters:sRGB"
       id="filter8349"
       x="-0.11109884"
       width="1.2221977"
       y="-0.077671982"
       height="1.155344">
      <feGaussianBlur
         inkscape:collect="always"
         stdDeviation="2.1371105"
         id="feGaussianBlur8351" />
    </filter>
    <filter
       inkscape:collect="always"
       style="color-interpolation-filters:sRGB"
       id="filter8353"
       x="-0.13624617"
       width="1.2724924"
       y="-0.11245189"
       height="1.2249038">
      <feGaussianBlur
         inkscape:collect="always"
         stdDeviation="2.1371105"
         id="feGaussianBlur8355" />
    </filter>
    <filter
       inkscape:collect="always"
       style="color-interpolation-filters:sRGB"
       id="filter8357"
       x="-0.13304275"
       width="1.2660855"
       y="-0.19393259"
       height="1.3878652">
      <feGaussianBlur
         inkscape:collect="always"
         stdDeviation="2.1371105"
         id="feGaussianBlur8359" />
    </filter>
    <filter
       inkscape:collect="always"
       style="color-interpolation-filters:sRGB"
       id="filter8361"
       x="-0.034531072"
       width="1.0690621"
       y="-2.5610497"
       height="6.1220994">
      <feGaussianBlur
         inkscape:collect="always"
         stdDeviation="2.1371105"
         id="feGaussianBlur8363" />
    </filter>
    <filter
       inkscape:collect="always"
       style="color-interpolation-filters:sRGB"
       id="filter8365"
       x="-0.15037742"
       width="1.3007549"
       y="-0.032298744"
       height="1.0645975">
      <feGaussianBlur
         inkscape:collect="always"
         stdDeviation="2.1371105"
         id="feGaussianBlur8367" />
    </filter>
    <filter
       inkscape:collect="always"
       style="color-interpolation-filters:sRGB"
       id="filter8369"
       x="-0.15037742"
       width="1.3007549"
       y="-0.032298744"
       height="1.0645975">
      <feGaussianBlur
         inkscape:collect="always"
         stdDeviation="2.1371105"
         id="feGaussianBlur8371" />
    </filter>
  </defs>
  <sodipodi:namedview
     pagecolor="#ffffff"
     bordercolor="#666666"
     borderopacity="1"
     objecttolerance="10"
     gridtolerance="10"
     guidetolerance="10"
     inkscape:pageopacity="0"
     inkscape:pageshadow="2"
     inkscape:window-width="1600"
     inkscape:window-height="838"
     id="namedview817"
     showgrid="false"
     inkscape:zoom="0.74898282"
     inkscape:cx="342.02502"
     inkscape:cy="108.03128"
     inkscape:window-x="-8"
     inkscape:window-y="-8"
     inkscape:window-maximized="1"
     inkscape:current-layer="g7337"
     inkscape:pagecheckerboard="true" />
  <g
     id="g7337"
     inkscape:label="simone"
     transform="translate(-127.85248,-337.94286)">
    <path
       sodipodi:nodetypes="cccccccccc"
       inkscape:connector-curvature="0"
       id="path7316"
       d="m 222.05116,360.27041 -0.16689,-6.84262 c -3.83118,-5.78381 -9.66226,-7.64698 -20.6113,-3.4213 -25.76461,10.08585 -49.63546,23.01233 -65.42206,48.06519 -5.39608,10.05281 -3.30848,18.05128 7.3433,23.6988 l 33.3786,13.01766 c 19.93688,7.41369 29.98884,20.75579 17.02309,45.06111 -10.9246,15.4808 -25.30216,29.85572 -41.55637,33.87929 -11.07111,2.67069 -12.56973,-1.83798 -5.84125,-12.51698 22.43254,-28.21846 55.24837,-50.09158 85.11544,-73.76671"
       style="fill:none;fill-opacity:1;stroke:#fffeff;stroke-width:4;stroke-linecap:butt;stroke-linejoin:miter;stroke-miterlimit:4;stroke-dasharray:none;stroke-opacity:1;filter:url(#filter8313)" />
    <path
       sodipodi:nodetypes="cccc"
       inkscape:connector-curvature="0"
       id="path7318"
       d="m 244.75519,426.61043 -2.24221,11.6831 c -2.22806,18.00476 6.78407,15.64409 18.76378,2.95028 5.30201,-5.4046 7.27035,-9.14237 10.85703,-13.6893"
       style="fill:none;fill-opacity:1;stroke:#fffeff;stroke-width:4;stroke-linecap:butt;stroke-linejoin:miter;stroke-miterlimit:4;stroke-dasharray:none;stroke-opacity:1;filter:url(#filter8317)" />
    <path
       sodipodi:nodetypes="cc"
       inkscape:connector-curvature="0"
       id="path7320"
       d="m 245.58127,416.57947 3.42232,-2.59624"
       style="fill:none;fill-opacity:1;stroke:#fffeff;stroke-width:4;stroke-linecap:butt;stroke-linejoin:miter;stroke-miterlimit:4;stroke-dasharray:none;stroke-opacity:1;filter:url(#filter8321)" />
    <path
       sodipodi:nodetypes="csssccc"
       inkscape:connector-curvature="0"
       id="path7322"
       d="m 289.83546,416.93351 c -6.25268,13.54948 -12.83458,36.95182 -10.85703,39.65175 0.40406,0.55166 18.57744,-35.04964 19.82588,-30.44688 2.97609,10.97221 -0.49996,21.19813 3.1863,21.124 4.10673,-0.0826 12.9133,-25.42452 13.6893,-22.89417 2.46539,28.65712 13.41232,15.91976 20.17991,11.21106 3.76991,-3.42661 4.87834,-4.98707 6.2546,-7.19868"
       style="fill:none;fill-opacity:1;stroke:#fffeff;stroke-width:4;stroke-linecap:butt;stroke-linejoin:miter;stroke-miterlimit:4;stroke-dasharray:none;stroke-opacity:1;filter:url(#filter8325)" />
    <path
       sodipodi:nodetypes="cssssc"
       inkscape:connector-curvature="0"
       id="path7324"
       d="m 360.05211,425.66633 c -8.97371,3.87695 -9.59655,18.73582 -3.54033,21.83207 8.38775,4.28824 16.40755,-10.82195 12.86322,-21.124 -2.54408,-7.39469 -10.93273,-5.63646 -9.08686,3.89437 2.25956,11.66688 16.18374,11.35098 22.42212,6.84465 4.0468,-2.92324 6.16519,-5.52507 8.3788,-8.14277"
       style="fill:none;fill-opacity:1;stroke:#fffeff;stroke-width:4;stroke-linecap:butt;stroke-linejoin:miter;stroke-miterlimit:4;stroke-dasharray:none;stroke-opacity:1;filter:url(#filter8329)" />
    <path
       sodipodi:nodetypes="csssc"
       inkscape:connector-curvature="0"
       id="path7326"
       d="m 407.96466,416.93351 c -3.30432,13.02057 -8.9896,27.02279 -9.91294,39.0617 -0.48241,6.28988 10.92421,-29.68594 17.70167,-29.73882 4.4221,-0.0345 5.54479,18.09808 12.50919,20.0619 7.63997,2.15432 16.63957,-18.52775 16.63957,-18.52775"
       style="fill:none;fill-opacity:1;stroke:#fffeff;stroke-width:4;stroke-linecap:butt;stroke-linejoin:miter;stroke-miterlimit:4;stroke-dasharray:none;stroke-opacity:1;filter:url(#filter8333)" />
    <path
       sodipodi:nodetypes="cscsc"
       inkscape:connector-curvature="0"
       id="path7328"
       d="m 456.34924,429.79673 c 5.09055,-1.84995 20.74316,-19.9272 13.57129,-19.58986 -10.80696,0.50833 -16.27278,24.38185 -16.87561,33.63319 1.45402,16.74367 10.3558,12.80879 18.29174,6.84464 8.54335,-6.42063 14.16019,-14.34077 19.35383,-22.54013"
       style="fill:none;fill-opacity:1;stroke:#fffeff;stroke-width:4;stroke-linecap:butt;stroke-linejoin:miter;stroke-miterlimit:4;stroke-dasharray:none;stroke-opacity:1;filter:url(#filter8337)" />
    <path
       style="fill:none;stroke:#fffeff;stroke-width:4;stroke-linecap:butt;stroke-linejoin:miter;stroke-miterlimit:4;stroke-dasharray:none;stroke-opacity:1;filter:url(#filter8341)"
       d="m 599.73283,352.14537 -1.65216,-8.26078 c -2.17037,-10.8518 -29.36222,89.75581 -41.06789,135.94888 -4.84055,16.65823 -4.2512,28.61104 17.70168,17.22963 20.88403,-10.92782 43.64641,-25.61231 59.24161,-25.96246"
       id="path7807"
       inkscape:connector-curvature="0"
       sodipodi:nodetypes="csccc" />
    <path
       sodipodi:nodetypes="cssssc"
       inkscape:connector-curvature="0"
       id="path7324-9"
       d="m 642.85327,424.8135 c -8.97371,3.87695 -9.59655,18.73582 -3.54033,21.83207 8.38775,4.28824 16.40755,-10.82195 12.86322,-21.124 -2.54408,-7.39469 -10.93273,-5.63646 -9.08686,3.89437 2.25956,11.66688 16.18374,11.35098 22.42212,6.84465 4.0468,-2.92324 6.16519,-5.52507 8.3788,-8.14277"
       style="fill:none;fill-opacity:1;stroke:#fffeff;stroke-width:4;stroke-linecap:butt;stroke-linejoin:miter;stroke-miterlimit:4;stroke-dasharray:none;stroke-opacity:1;filter:url(#filter8345)" />
    <path
       style="fill:none;stroke:#fffeff;stroke-width:4;stroke-linecap:butt;stroke-linejoin:miter;stroke-miterlimit:4;stroke-dasharray:none;stroke-opacity:1;filter:url(#filter8349)"
       d="m 688.93436,427.44485 6.17504,-11.68251 c 6.76117,-14.5915 0.44903,-14.59801 -5.67436,-6.34194 -9.87275,13.31128 -2.14079,26.03745 6.84262,19.86027 19.36815,-13.31793 11.25045,-3.93617 9.17911,3.83854 -3.19451,6.27132 -5.12194,16.34386 -7.00951,26.53599 -0.71445,13.04341 2.88328,12.62387 11.01494,4.33922 10.2581,-11.23307 15.53337,-23.4627 21.5292,-35.54822"
       id="path7830"
       inkscape:connector-curvature="0"
       sodipodi:nodetypes="ccsscccc" />
    <path
       sodipodi:nodetypes="cscsc"
       inkscape:connector-curvature="0"
       id="path7328-9"
       d="m 743.52946,428.2378 c 5.09055,-1.84995 20.74316,-19.9272 13.57129,-19.58986 -10.80696,0.50833 -16.27278,24.38185 -16.87561,33.63319 1.45402,16.74367 10.3558,12.80879 18.29174,6.84464 8.54335,-6.42063 14.16019,-14.34077 19.35383,-22.54013"
       style="fill:none;fill-opacity:1;stroke:#fffeff;stroke-width:4;stroke-linecap:butt;stroke-linejoin:miter;stroke-miterlimit:4;stroke-dasharray:none;stroke-opacity:1;filter:url(#filter8353)" />
    <path
       sodipodi:nodetypes="cssssc"
       inkscape:connector-curvature="0"
       id="path7324-9-7"
       d="m 852.08091,426.8135 c -8.97371,3.87695 -9.59655,18.73582 -3.54033,21.83207 8.38775,4.28824 16.40755,-10.82195 12.86322,-21.124 -2.54408,-7.39469 -10.93273,-5.63646 -9.08686,3.89437 2.25956,11.66688 16.18374,11.35098 22.42212,6.84465 4.0468,-2.92324 6.16519,-5.52507 8.3788,-8.14277"
       style="fill:none;fill-opacity:1;stroke:#fffeff;stroke-width:4;stroke-linecap:butt;stroke-linejoin:miter;stroke-miterlimit:4;stroke-dasharray:none;stroke-opacity:1;filter:url(#filter8357)" />
    <path
       style="fill:none;stroke:#fffeff;stroke-width:4;stroke-linecap:butt;stroke-linejoin:miter;stroke-miterlimit:4;stroke-dasharray:none;stroke-opacity:1;filter:url(#filter8361)"
       d="m 758.02807,388.39188 144.52935,-2.00272 4.00543,1.33515"
       id="path7874"
       inkscape:connector-curvature="0" />
    <path
       style="fill:none;stroke:#fffeff;stroke-width:4;stroke-linecap:butt;stroke-linejoin:miter;stroke-miterlimit:4;stroke-dasharray:none;stroke-opacity:1;filter:url(#filter8365)"
       d="m 807.23287,359.93908 c -13.71298,53.88262 -38.22153,163.72608 -33.51686,158.62935 l 4.00543,-4.33922"
       id="path7876"
       inkscape:connector-curvature="0"
       sodipodi:nodetypes="csc" />
    <path
       style="fill:none;stroke:#fffeff;stroke-width:4;stroke-linecap:butt;stroke-linejoin:miter;stroke-miterlimit:4;stroke-dasharray:none;stroke-opacity:1;filter:url(#filter8369)"
       d="m 836.55923,360.51676 c -13.71298,53.88262 -38.22153,163.72608 -33.51686,158.62935 l 4.00543,-4.33922"
       id="path7876-2"
       inkscape:connector-curvature="0"
       sodipodi:nodetypes="csc" />
  </g>
</svg>
