<?xml version="1.0" encoding="UTF-8" standalone="no"?>
<!-- Created with Inkscape (http://www.inkscape.org/) -->

<svg
   width="531.34308mm"
   height="284.27063mm"
   viewBox="0 0 531.34308 284.27063"
   version="1.1"
   id="svg5"
   inkscape:version="1.2.1 (9c6d41e410, 2022-07-14)"
   sodipodi:docname="fundolilas.svg"
   inkscape:export-filename="fundoverde.png"
   inkscape:export-xdpi="96"
   inkscape:export-ydpi="96"
   xmlns:inkscape="http://www.inkscape.org/namespaces/inkscape"
   xmlns:sodipodi="http://sodipodi.sourceforge.net/DTD/sodipodi-0.dtd"
   xmlns="http://www.w3.org/2000/svg"
   xmlns:svg="http://www.w3.org/2000/svg">
  <sodipodi:namedview
     id="namedview7"
     pagecolor="#ffffff"
     bordercolor="#000000"
     borderopacity="0.25"
     inkscape:showpageshadow="2"
     inkscape:pageopacity="0.0"
     inkscape:pagecheckerboard="0"
     inkscape:deskcolor="#d1d1d1"
     inkscape:document-units="mm"
     showgrid="false"
     inkscape:zoom="0.50646226"
     inkscape:cx="925.04425"
     inkscape:cy="525.21189"
     inkscape:window-width="1920"
     inkscape:window-height="991"
     inkscape:window-x="-9"
     inkscape:window-y="-9"
     inkscape:window-maximized="1"
     inkscape:current-layer="layer1" />
  <defs
     id="defs2">
    <clipPath
       clipPathUnits="userSpaceOnUse"
       id="clipEmfPath1">
      <path
         d="M 0,0 H 566.11979 V 48.414987 H 0 Z"
         id="path24471" />
    </clipPath>
    <pattern
       id="EMFhbasepattern"
       patternUnits="userSpaceOnUse"
       width="6"
       height="6"
       x="0"
       y="0" />
    <clipPath
       clipPathUnits="userSpaceOnUse"
       id="clipEmfPath1-8">
      <path
         d="M 0,0 H 566.11979 V 48.414987 H 0 Z"
         id="path27076" />
    </clipPath>
    <pattern
       id="EMFhbasepattern-6"
       patternUnits="userSpaceOnUse"
       width="6"
       height="6"
       x="0"
       y="0" />
    <clipPath
       clipPathUnits="userSpaceOnUse"
       id="clipEmfPath1-0">
      <path
         d="M 0,0 H 566.11979 V 48.414987 H 0 Z"
         id="path27371" />
    </clipPath>
    <pattern
       id="EMFhbasepattern-0"
       patternUnits="userSpaceOnUse"
       width="6"
       height="6"
       x="0"
       y="0" />
  </defs>
  <g
     inkscape:label="Camada 1"
     inkscape:groupmode="layer"
     id="layer1"
     transform="translate(1.1658921,-56.948914)">
    <rect
       style="display:inline;fill:#aaa8c0;fill-opacity:0.88;stroke:#ffffff;stroke-width:0.43695;stroke-opacity:0.998738"
       id="rect234"
       width="530.90613"
       height="283.83368"
       x="-0.94741714"
       y="57.167389" />
    <text
       xml:space="preserve"
       style="font-weight:bold;font-size:17.1771px;font-family:'Collection New Style';-inkscape-font-specification:'Collection New Style Bold';fill:#020401;fill-opacity:0.88;stroke:#060000;stroke-width:0.169065;stroke-dasharray:none;stroke-opacity:0.998738"
       x="418.54282"
       y="102.52993"
       id="text27407"
       transform="scale(1.058238,0.94496702)"><tspan
         sodipodi:role="line"
         id="tspan27405"
         style="stroke-width:0.169066"
         x="418.54282"
         y="102.52993">루시안</tspan></text>
    <path
       style="fill:#aaa8c0;fill-opacity:0.88;stroke:#060000;stroke-width:0.587851;stroke-dasharray:none;stroke-opacity:0.998738"
       d="m 231.752,283.62222 c -2.08557,0.12058 -4.22888,1.17837 -6.2567,0.36174 -5.97214,-2.40505 -11.44954,-6.92009 -17.30993,-9.8523 -7.97677,-3.99113 -16.12077,-7.23797 -24.17141,-10.90268 -10.75403,-4.89529 -21.29705,-10.90706 -32.24245,-14.77727 C 47.881806,216.74563 117.16844,239.775 39.735982,210.79329 30.984055,207.51758 21.571186,206.66303 13.52071,200.73232 c -1.507841,-1.11082 -1.507711,-7.07264 -1.501418,-7.87214 0.107607,-13.65149 1.355728,-27.4845 5.006342,-40.08419 5.621871,-19.40333 17.31378,-44.23021 29.720635,-55.983912 8.025831,-7.60333 17.220279,-12.69478 26.153408,-18.15356 9.95986,-6.08618 22.81845,-11.240272 33.703053,-14.248803 2.54958,-0.704698 5.20549,-0.624105 7.77918,-1.173296 5.63132,-1.201666 -1.42278,-0.641295 2.56526,-0.871872"
       id="path27961" />
    <path
       style="fill:#aaa8c0;fill-opacity:0.88;stroke:#060000;stroke-width:0.499999;stroke-dasharray:none;stroke-opacity:0.998738"
       d="m 423.96115,78.565224 c 7.14966,26.647206 -0.37268,27.354096 -7.0335,76.178996 -2.02443,14.83945 -4.75293,29.5745 -7.03847,44.37598 -2.10024,13.60159 -3.40054,52.72981 -19.37563,63.68626 -4.84451,3.32258 -10.55239,5.16584 -15.80588,7.79445 -12.79068,6.39993 -8.62372,5.0223 -22.76511,10.10398 -4.43685,1.59438 -9.03464,2.73958 -13.41217,4.49023 -4.28092,1.71201 -8.25692,4.12305 -12.51947,5.88027 -4.21749,1.73864 -9.68425,2.46371 -14.17606,3.60644 -1.68763,0.42934 -3.37526,0.85868 -5.06288,1.28802 -1.01258,0.2576 -2.01685,0.99524 -3.03773,0.77281 -5.26214,-1.14654 -4.58198,-2.24328 -6.8661,-5.80003 -0.50673,-0.78906 -1.25164,-1.428 -1.65658,-2.27383 -0.75198,-1.57066 -0.34703,-3.59762 -1.28801,-5.06288 -0.47049,-0.73262 -1.59585,-0.88637 -2.03407,-1.63874 -1.15426,-1.98171 2.14068,-5.04751 3.13977,-6.72839"
       id="path27963" />
    <path
       style="fill:#aaa8c0;fill-opacity:0.88;stroke:#060000;stroke-width:0.499999;stroke-dasharray:none;stroke-opacity:0.998738"
       d="m 497.61414,285.179 c -2.16949,-3.60278 -2.99302,-4.39727 -3.77777,-9.3117 -2.89172,-18.10891 -3.96256,-36.52635 -7.7919,-54.46042 -2.51645,-11.78547 -12.11745,-32.86952 -17.36336,-45.03784 -13.02143,-30.20415 -5.19913,-11.30219 -14.48067,-35.18715 -1.53466,-3.94926 -3.36415,-7.79068 -4.67771,-11.81888 -0.85361,-2.61771 -1.08702,-5.40235 -1.80473,-8.06053 -0.27612,-1.02262 -0.89331,-1.93211 -1.16942,-2.95473 -0.74864,-2.77262 -0.99383,-5.95102 -1.62668,-8.77756 4.71924,0.41057 9.4227,1.09284 14.15773,1.23173 3.97307,0.11653 7.94846,-0.21411 11.91519,-0.46698 1.32351,-0.0844 2.61773,-0.62804 3.94125,-0.54384 1.47463,0.0938 2.83591,0.88557 4.30219,1.06825 1.63022,0.20312 3.29114,-0.0606 4.92778,0.0817 0.73601,0.064 1.41238,0.52189 2.15109,0.53413 0.93763,0.0156 1.84982,-0.59505 2.77667,-0.45239 0.54427,0.0838 0.79097,0.77822 1.25603,1.07312 0.73531,0.46628 1.7536,0.0548 2.59863,0.26463 0.37791,0.0939 0.63436,0.45945 0.98652,0.62559 1.39883,0.65987 6.83232,0.75432 8.24344,0.52441 0.51562,-0.084 0.89508,-0.53899 1.34262,-0.80849"
       id="path27965" />
    <path
       style="fill:#aaa8c0;fill-opacity:0.88;stroke:#060000;stroke-width:0.499999;stroke-dasharray:none;stroke-opacity:0.998738"
       id="path28016"
       d="m 36.815775,270.77173 c -0.08206,0.0371 -0.31918,0.0585 -0.246187,0.11118 1.642634,1.18645 3.374279,2.24452 5.061419,3.36678 2.23281,1.58241 4.486462,3.13581 6.698432,4.74723 8.162007,5.94599 16.070101,12.2181 23.983992,18.48672 8.97477,7.31985 18.10962,14.4421 27.665952,20.99094 1.757137,1.20414 3.512847,2.41238 5.315927,3.54656 1.56157,0.98229 3.18254,1.8668 4.77381,2.80019 2.59317,1.31175 5.10503,2.79845 7.77952,3.93526 2.79496,1.188 8.74884,2.53431 11.6211,2.77264 2.84554,0.23612 5.71171,0.18802 8.56546,0.0932 7.80999,-0.25945 12.50847,-1.01701 20.28058,-1.97358 10.75767,-1.68058 21.57854,-3.49364 31.98801,-6.77405 4.83703,-1.52431 6.04995,-2.17415 10.82165,-4.18715 7.2886,-3.25775 3.74269,-1.62627 10.64233,-4.88442 0,0 -2.9061,-1.92003 -2.9061,-1.92003 v 0 c -6.84513,3.29088 -3.31612,1.65401 -10.59385,4.89589 -4.22244,1.73696 -6.50196,2.77215 -10.77855,4.17069 -10.28278,3.36271 -20.98642,5.29801 -31.65507,6.9416 -9.61812,1.15692 -19.36587,2.54275 -29.08057,1.58678 -4.68974,-0.46148 -8.96498,-2.09653 -13.43314,-3.4073 -1.61849,-0.9367 -3.26774,-1.82216 -4.85545,-2.81011 -1.83198,-1.13996 -3.61416,-2.35853 -5.39909,-3.57085 -9.65701,-6.55905 -18.885629,-13.70428 -27.932921,-21.07624 -13.383672,-10.61408 -26.72779,-21.40788 -41.357494,-30.287 0,0 3.04024,2.44505 3.04024,2.44505 z" />
    <path
       style="fill:#aaa8c0;fill-opacity:0.88;stroke:#060000;stroke-width:0.499999;stroke-dasharray:none;stroke-opacity:0.998738"
       id="path28018"
       d="m 239.12087,235.72981 c -7.54735,-10.88468 -14.60043,-22.10879 -21.21068,-33.58598 -1.7206,-2.98742 -3.38141,-6.00888 -5.07212,-9.01332 -7.30909,-13.46766 -13.98702,-27.3327 -19.12284,-41.78841 -0.89295,-2.51334 -1.66302,-5.06867 -2.49453,-7.60301 -2.02525,-7.45121 -4.54668,-15.19715 -3.7017,-23.04108 0.4495,-4.17268 1.14883,-5.19756 2.66428,-9.09594 2.46288,-3.96381 2.81333,-4.99076 6.09625,-8.39218 4.62577,-4.792728 10.33679,-8.219793 16.10939,-11.417143 2.94507,-1.325922 4.23638,-2.055675 7.41611,-2.868252 1.63223,-0.417116 3.3003,-0.680202 4.95791,-0.980983 8.08277,-1.466659 16.21426,-2.283962 24.37966,-3.138683 6.09637,-0.431392 12.16991,-1.141442 18.26417,-1.597426 4.88371,-0.365406 9.45105,-0.701595 14.33571,-0.323208 5.15194,0.399091 6.63884,1.024292 11.55573,2.322867 5.01851,2.070748 5.75347,2.15198 10.45678,5.002823 0.72245,0.437891 1.33874,1.030859 2.01592,1.535912 3.04432,2.270506 5.74934,4.106079 8.55747,6.653128 1.15908,1.051319 2.20181,2.224205 3.30271,3.336305 0.87418,1.11294 1.92389,2.10807 2.62255,3.3388 0.86979,1.53225 1.48865,3.20274 2.04071,4.87595 1.84695,5.59791 2.50838,11.60834 2.61747,17.47505 0.0327,1.75592 -0.0737,3.51168 -0.11055,5.26752 -0.58102,5.43995 -1.15652,11.69783 -5.21705,15.84382 -0.57325,0.58529 -1.27378,1.0306 -1.91066,1.5459 -1.15457,0.37626 -2.28272,0.84624 -3.46372,1.12878 -4.95689,1.18588 -10.12407,1.32944 -15.17851,1.7347 -5.92923,0.4754 -4.62663,0.37653 -10.41132,1.09679 -1.48683,0.31706 -3.00427,0.51448 -4.46043,0.95118 -3.64239,1.09232 -7.07033,3.10848 -9.09899,6.43485 -1.83108,3.00236 -2.06465,5.33061 -2.88055,8.75666 -1.53278,8.49848 -1.10239,17.18 0.51813,25.63235 0.85823,4.47644 1.68836,7.03177 2.92116,11.32343 1.0772,3.5605 2.50664,7.01069 4.28347,10.27891 0.99042,1.82169 2.07209,3.53892 2.96715,5.41367 0.94099,2.23047 1.58583,4.58953 1.46309,7.01942 -0.54411,3.04803 -2.19707,4.61782 -4.46984,6.55462 -3.59093,3.02535 -7.58127,5.51164 -11.31171,8.35494 -2.10846,1.52818 -4.00677,3.22963 -5.28455,5.5284 -0.74652,1.34302 -1.06073,2.30343 -1.62227,3.7451 -1.08111,2.75649 -1.89973,5.60042 -2.43085,8.51099 0,0 3.41526,1.81591 3.41526,1.81591 v 0 c 0.49276,-2.89765 1.25127,-5.73823 2.33715,-8.47456 0.53821,-1.35477 0.89971,-2.40213 1.60583,-3.67013 1.25297,-2.24991 3.14333,-3.90889 5.18393,-5.43241 3.73724,-2.84963 7.71345,-5.36857 11.34634,-8.35542 2.46481,-2.05936 4.02802,-3.54151 4.6939,-6.78369 0.0302,-0.36714 0.0919,-0.73305 0.0905,-1.10143 -0.008,-2.11105 -0.81513,-4.18257 -1.5299,-6.12568 -0.85061,-1.79961 -0.74324,-1.6793 -1.80631,-3.46235 -0.40317,-0.67624 -0.85704,-1.32193 -1.2478,-2.00542 -1.86804,-3.26739 -3.39021,-6.72527 -4.52647,-10.31442 -1.31355,-4.36875 -2.13783,-6.75561 -3.04144,-11.33123 -1.65698,-8.3903 -2.06174,-17.0122 -0.44558,-25.44163 0.84354,-3.35623 1.10022,-5.6164 2.91396,-8.5486 2.89846,-4.68585 8.17872,-6.36018 13.29635,-7.23566 5.77675,-0.72738 4.44428,-0.62535 10.3774,-1.09862 5.10397,-0.40712 10.34677,-0.53345 15.35499,-1.7171 1.2401,-0.29309 2.42364,-0.78805 3.63546,-1.18208 1.83959,-1.53499 2.24824,-1.63345 3.55152,-3.72228 2.61951,-4.19842 3.09174,-9.26623 3.50632,-14.06875 0.0278,-1.77017 0.12292,-3.54056 0.0832,-5.3105 -0.0847,-3.78079 -0.45908,-8.12793 -1.1507,-11.83903 -0.55848,-2.99668 -1.77445,-7.87903 -3.29181,-10.64858 -0.689,-1.25759 -1.76326,-2.26185 -2.64488,-3.39277 -1.10977,-1.129 -2.15889,-2.32102 -3.32933,-3.387004 -4.98642,-4.541417 -10.74566,-8.253391 -16.52516,-11.668728 -1.69992,-1.004562 -3.42956,-1.966756 -5.21653,-2.806824 -1.72466,-0.810782 -3.53488,-1.425462 -5.30233,-2.138193 -4.95226,-1.265242 -6.35984,-1.862081 -11.53824,-2.207347 -4.83835,-0.322593 -9.37379,0.06293 -14.20336,0.461325 -6.07159,0.500849 -12.12151,1.247717 -18.20244,1.645279 -8.26851,0.812458 -16.53685,1.5328 -24.73326,2.926537 -1.69254,0.287806 -3.39433,0.546532 -5.05904,0.966378 -3.25849,0.821804 -4.45201,1.544685 -7.43787,2.937632 -5.74679,3.281359 -11.47028,6.764557 -16.10265,11.572015 -3.29499,3.41953 -3.68992,4.49824 -6.18681,8.47267 -1.55969,3.95658 -2.26993,4.96144 -2.7188,9.20848 -0.83884,7.93672 1.81107,15.75532 3.90931,23.27184 0.85038,2.54858 1.64103,5.11787 2.55114,7.64574 5.21324,14.48003 11.80599,28.42497 19.23641,41.89055 8.08218,14.34674 16.44303,28.53163 25.51734,42.27891 0,0 3.54141,1.55992 3.54141,1.55992 z" />
    <path
       style="fill:#aaa8c0;fill-opacity:0.88;stroke:#060000;stroke-width:0.499999;stroke-dasharray:none;stroke-opacity:0.998738"
       id="path28020"
       d="m 320.99929,322.00281 c 3.55309,2.16365 7.28792,3.98327 11.05207,5.73928 2.40482,1.12189 4.50879,2.13575 7.04085,2.96315 1.34049,0.43805 2.71934,0.74851 4.079,1.12276 1.68635,0.23797 3.35765,0.63865 5.05902,0.71387 4.64786,0.20551 9.35583,-0.4699 13.8719,-1.48084 5.3762,-1.20349 11.48431,-3.1572 16.49483,-5.43584 2.72198,-1.23788 5.28656,-2.79614 7.92983,-4.19422 6.38072,-4.67478 8.98689,-5.96243 14.06552,-12.26327 7.87765,-9.77352 13.00331,-21.61586 17.31017,-33.28484 1.58071,-4.28272 2.90143,-8.65694 4.35216,-12.98541 5.60716,-18.54121 9.44039,-37.51968 12.05828,-56.6938 0.49125,-3.04696 0.61378,-6.13562 1.00079,-9.194 0.10035,-0.79307 0.12089,-1.61507 0.39785,-2.36495 0.0624,-0.16895 0.70398,-0.12153 0.52414,-0.13126 -4.03177,-0.21812 -2.60831,-0.32232 -1.18665,4.17802 2.90404,11.28711 4.78805,22.78893 6.68067,34.2768 1.84497,11.19869 1.89765,11.54245 3.73306,22.76811 1.62846,9.64761 3.37127,19.28935 5.58189,28.82382 0.87889,3.7906 2.31907,9.42254 3.6091,13.19476 0.63225,1.84873 1.41735,3.64159 2.12601,5.46239 3.48842,8.22102 8.42504,15.53592 15.21563,21.39217 1.13279,0.97694 2.36683,1.82993 3.55026,2.74489 3.61796,2.46827 7.42675,4.63738 11.44079,6.38704 0,0 -2.95314,-2.33823 -2.95314,-2.33823 v 0 c -0.75703,-0.33504 -1.49016,-0.73033 -2.27106,-1.00515 -0.16338,-0.0575 0.26009,0.22881 0.39016,0.34319 -1.09313,-0.68664 -2.18625,-1.37332 -3.27935,-2.05999 -1.20216,-0.9094 -2.45576,-1.75453 -3.60648,-2.72817 -6.84914,-5.79495 -11.7932,-13.09464 -15.35102,-21.28361 -0.72644,-1.81922 -1.52596,-3.61093 -2.17932,-5.45765 -1.34705,-3.80748 -2.87105,-9.42809 -3.80805,-13.26061 -1.20239,-4.91802 -2.98518,-13.31738 -3.90609,-18.12934 -0.68736,-3.5916 -1.28696,-7.19944 -1.93046,-10.79916 -1.64499,-10.0992 -2.07219,-12.65479 -3.67109,-22.73711 -1.80649,-11.3913 -3.53425,-22.80213 -6.11846,-34.05128 -0.36682,-1.37308 -0.29835,-2.94599 -1.10046,-4.11925 -1.09302,-1.59876 -4.30643,-5.09542 -4.82904,-3.2306 -0.22177,0.79138 -0.20349,1.63145 -0.27628,2.45009 -0.11922,1.3407 -0.19978,2.68457 -0.29969,4.02685 -0.16698,1.75206 -0.33393,3.50413 -0.50091,5.25619 -2.30087,19.25397 -5.84031,38.37015 -11.43283,56.9619 -1.45389,4.3202 -2.7718,8.68857 -4.3616,12.96061 -4.34438,11.67389 -9.57948,23.30517 -17.5644,33.00387 -5.19432,6.30916 -7.59952,7.44923 -14.06149,12.15056 -2.63882,1.38566 -5.19853,2.93381 -7.91646,4.15698 -8.86143,3.98796 -20.74119,7.17875 -30.54856,6.57717 -1.71688,-0.10533 -3.39862,-0.53324 -5.09794,-0.79984 -1.36144,-0.39041 -2.74182,-0.71995 -4.08432,-1.1712 -2.46975,-0.83013 -4.69325,-1.89291 -7.04357,-3.0004 -1.09318,-0.51512 -2.18356,-1.03637 -3.26674,-1.57216 -0.92895,-0.45947 -1.79845,-1.05074 -2.76928,-1.41345 -0.55904,-0.20886 1.01306,0.63105 1.51958,0.94657 0,0 -3.66882,-1.41541 -3.66882,-1.41541 z" />
  </g>
</svg>
