<?xml version="1.0" encoding="UTF-8" standalone="no"?>
<!-- Created with Inkscape (http://www.inkscape.org/) -->

<svg
   version="1.1"
   id="svg9"
   width="285.56696"
   height="355.97308"
   viewBox="0 0 285.56696 355.97309"
   sodipodi:docname="logo2.svg"
   inkscape:version="1.1.2 (b8e25be833, 2022-02-05)"
   inkscape:export-filename="C:\xampp\htdocs\serzodiaco\public\images\logo-rodape.png"
   inkscape:export-xdpi="96"
   inkscape:export-ydpi="96"
   xmlns:inkscape="http://www.inkscape.org/namespaces/inkscape"
   xmlns:sodipodi="http://sodipodi.sourceforge.net/DTD/sodipodi-0.dtd"
   xmlns="http://www.w3.org/2000/svg"
   xmlns:svg="http://www.w3.org/2000/svg">
  <defs
     id="defs13" />
  <sodipodi:namedview
     id="namedview11"
     pagecolor="#ffffff"
     bordercolor="#666666"
     borderopacity="1.0"
     inkscape:pageshadow="2"
     inkscape:pageopacity="0.0"
     inkscape:pagecheckerboard="true"
     showgrid="false"
     inkscape:zoom="1.132814"
     inkscape:cx="65.324051"
     inkscape:cy="216.27558"
     inkscape:window-width="1360"
     inkscape:window-height="705"
     inkscape:window-x="-1368"
     inkscape:window-y="-8"
     inkscape:window-maximized="1"
     inkscape:current-layer="svg9"
     showborder="true"
     inkscape:showpageshadow="false" />
  <g
     inkscape:label="logo"
     id="g15"
     style="display:inline"
     transform="matrix(0.68513448,0,0,0.67847132,135.4304,4.161725)"
     inkscape:export-filename="C:\xampp\htdocs\serzodiaco\public\images\logo-rodape.png"
     inkscape:export-xdpi="96"
     inkscape:export-ydpi="96">
    <path
       style="display:inline;fill:#e67817;fill-opacity:1;fill-rule:evenodd;stroke:#000500;stroke-width:4.24262;stroke-linecap:butt;stroke-linejoin:miter;stroke-miterlimit:4;stroke-dasharray:none;stroke-opacity:1"
       d="M -117.19422,93.38831 -76.868686,51.080401 C -24.843678,73.873852 32.625907,76.679712 92.77666,49.888627 l 41.15985,44.095569 c -35.74395,26.920834 -22.09634,57.680654 -2.78107,84.913764 37.97038,54.68887 23.54753,97.25363 -31.148,130.49903 C 66.692832,324.70273 36.728466,344.9436 9.3445187,368.98562 -12.04627,345.07735 -53.686496,328.55506 -84.377578,308.20523 c -13.492943,-10.29219 -15.842532,-8.61658 -36.153932,-33.96551 -17.60851,-22.96188 -14.65938,-47.93027 -4.72782,-69.71868 6.22727,-14.456 17.26655,-31.4567 26.142074,-44.98938 12.185494,-22.89254 8.778497,-39.99393 -18.076964,-66.14335 z"
       id="path132"
       sodipodi:nodetypes="cccccccccccc"
       inkscape:label="contorno" />
    <path
       style="display:inline;fill:#0b0800;fill-opacity:1;fill-rule:evenodd;stroke:none;stroke-width:0.136177px;stroke-linecap:butt;stroke-linejoin:miter;stroke-opacity:1"
       d="m -49.633308,133.74903 0.461525,-1.34557 c -4.288634,-2.71703 -4.927572,-7.79462 -5.496454,-12.91753 l -0.12582,-8.91925 c 1.09779,1.66525 1.31409,5.88112 2.391564,8.26568 0.865415,2.6689 6.922534,10.57577 12.370317,2.74086 0.739239,-1.32721 2.157068,-3.59478 2.460017,-3.79533 0.55614,-0.36815 1.562416,-1.13624 2.120569,-1.79046 1.961619,-2.73032 0.953507,-5.5162 -1.258736,-7.72745 -3.417373,-2.03362 -5.484852,-1.59342 -7.846066,-1.69158 l -9.482441,0.23067 c 1.774314,-0.59694 5.641129,-0.88711 10.195713,-1.07646 2.882192,-0.74226 5.600514,-1.63467 7.048872,-3.69072 2.250097,-3.714216 1.567495,-6.456278 -1.006971,-8.265677 -3.128094,-1.045011 -3.988946,-2.965205 -5.664298,-4.805627 -2.399156,-2.65051 -5.475513,-2.81909 -9.440453,0.269115 -2.656927,2.421263 -2.761504,5.003213 -2.811173,7.458333 l 0.04206,7.804336 c -0.983982,-2.241 -1.05828,-7.12155 -1.426562,-11.149052 -0.703738,-4.997598 -6.095739,-7.299203 -10.321569,-4.421177 -1.382936,0.636995 -3.692823,4.841697 -6.125822,5.958977 -3.527903,2.143457 -5.464055,7.558102 1.762213,10.111042 2.399994,0.82665 5.173741,1.12672 7.971957,0.84579 l 5.202755,0.49978 c -0.365717,1.17835 -6.380225,0.6314 -10.405509,0.69201 -5.685594,-0.0954 -10.257733,5.70391 -6.125804,10.14949 1.232859,0.76496 3.04672,2.1656 3.337657,3.9333 0.189782,1.15312 1.668917,1.79187 2.452496,2.79458 4.501119,2.53886 8.464919,0.52484 9.985918,-2.46049 0.880456,-1.70535 1.020498,-4.49618 1.384592,-6.95854 0.412338,-1.80561 1.103814,-3.13277 1.930057,-4.11362 -0.358552,5.59702 -0.707979,11.29736 0.419573,16.41602 0.673477,4.30844 2.868184,6.33599 5.999948,6.95855 z"
       id="path14046"
       sodipodi:nodetypes="ccccccscccccccccccccccccccscccccc"
       inkscape:label="trevo" />
    <g
       id="g84083"
       style="display:inline;fill:#000e00;fill-opacity:1;stroke:none"
       inkscape:label="ser"
       inkscape:groupmode="layer">
      <path
         style="display:inline;fill:#ffffff;fill-opacity:1;fill-rule:evenodd;stroke:none;stroke-width:0.368923;stroke-linecap:butt;stroke-linejoin:miter;stroke-miterlimit:4;stroke-dasharray:none;stroke-opacity:1"
         d="m -33.431318,30.113755 c -3.095885,-1.920599 -5.954496,-4.854989 -9.160666,-5.915227 -3.872443,-1.207562 -7.701936,-1.515051 -12.097659,0.513915 -6.015977,2.776836 -6.293838,9.18586 -2.745284,13.89579 2.76641,3.671804 8.75661,3.168464 12.387695,5.748182 3.903604,2.77333 0.943078,6.032616 -1.716358,5.681184 -5.615557,-2.348271 -9.197418,-3.875847 -13.905356,-8.863805 l -5.097265,5.542799 c 5.310733,2.792074 10.606573,7.170242 14.73763,8.383845 4.302853,1.188117 7.372855,1.104609 11.663627,-1.420523 3.019317,-4.466785 3.22289,-8.723694 1.431265,-12.431635 -1.80179,-3.728977 -6.710916,-4.425052 -10.35949,-5.95886 -8.599983,-3.615309 -3.227416,-7.468171 -0.115198,-6.1281 4.948207,1.81996 8.095736,3.607424 11.587113,6.723984 z"
         id="path78520"
         sodipodi:nodetypes="ccssscccccasccc"
         inkscape:label="S" />
      <ellipse
         style="fill:#ffffff;fill-opacity:1;stroke:none;stroke-width:0.368923;stroke-miterlimit:4;stroke-dasharray:none;stroke-opacity:1"
         id="path81493"
         cx="-26.878933"
         cy="55.102627"
         rx="3.1982317"
         ry="3.5753164"
         inkscape:label="ponto" />
      <ellipse
         style="fill:#ffffff;fill-opacity:1;stroke:none;stroke-width:0.368923;stroke-miterlimit:4;stroke-dasharray:none;stroke-opacity:1"
         id="path81493-9"
         cx="24.223261"
         cy="57.113747"
         rx="3.1982317"
         ry="3.5753164"
         inkscape:label="ponto" />
      <ellipse
         style="fill:#ffffff;fill-opacity:1;stroke:none;stroke-width:0.368923;stroke-miterlimit:4;stroke-dasharray:none;stroke-opacity:1"
         id="path81493-7"
         cx="76.159782"
         cy="48.100971"
         rx="3.1982317"
         ry="3.5753164"
         inkscape:label="ponto" />
      <path
         style="fill:#ffffff;fill-opacity:1;fill-rule:evenodd;stroke:none;stroke-width:0.184462;stroke-linecap:butt;stroke-linejoin:miter;stroke-miterlimit:4;stroke-dasharray:none;stroke-opacity:1"
         d="m 12.195113,30.224387 -26.837332,-0.14898 1.321009,2.085602 0.347635,24.952727 -1.599116,2.830459 27.254492,0.893829 -0.208583,-5.660917 -19.6760713,-0.744859 0.1390616,-7.00166 12.862453,0.446914 0.2085817,-8.04446 -1.7381704,2.681486 -11.2633371,-0.148981 0.20858,-6.405775 19.0503365,0.446915 0.139008,-5.884376 z"
         id="path81608"
         inkscape:label="E" />
      <path
         id="path82551"
         style="fill:#ffffff;fill-opacity:1;fill-rule:evenodd;stroke:none;stroke-width:0.184462;stroke-linecap:butt;stroke-linejoin:miter;stroke-miterlimit:4;stroke-dasharray:none;stroke-opacity:1"
         d="m 40.562061,35.065961 1.251465,7.37409 c 0,0 8.131692,-0.380939 11.541455,-2.458029 5.628939,-3.428917 2.845052,-6.129066 -1.807694,-6.703719 -3.67427,-0.453801 -10.985226,1.787658 -10.985226,1.787658 z m -2.989656,24.5803 -4.31066,-28.528044 c 0,0 17.77164,-4.737176 21.970452,-4.171204 4.865517,0.655839 11.291971,8.117369 4.380183,15.046124 l -3.476327,2.607 9.942327,10.502493 -7.995589,0.968316 -9.316576,-10.130064 -6.605043,0.893829 1.946737,11.619778 z"
         inkscape:label="R" />
    </g>
    <ellipse
       style="fill:none;fill-opacity:1;stroke:#3d0a0c;stroke-width:2.02723;stroke-miterlimit:4;stroke-dasharray:none;stroke-opacity:1"
       id="path84267"
       cx="-55.274658"
       cy="108.28545"
       rx="31.055849"
       ry="34.865948"
       inkscape:label="circulo" />
    <path
       style="fill:none;fill-rule:evenodd;stroke:#0a0c02;stroke-width:1.84462px;stroke-linecap:butt;stroke-linejoin:miter;stroke-opacity:1"
       d="M -128.59661,214.2042 91.596748,52.732773 131.18338,94.089534 -118.72381,276.47429 c -16.16172,-19.52134 -19.23694,-44.53471 -9.8728,-62.27009 z"
       id="path967"
       sodipodi:nodetypes="ccccc"
       inkscape:label="quadro" />
    <g
       id="g4711"
       inkscape:label="listras"
       style="fill:#0a0a00;fill-opacity:1;stroke:none"
       inkscape:groupmode="layer">
      <path
         style="fill:#0a0a00;fill-opacity:1;fill-rule:evenodd;stroke:none;stroke-width:1.84462px;stroke-linecap:butt;stroke-linejoin:miter;stroke-opacity:1"
         d="m -100.33561,263.25907 40.805165,-29.81087 -0.09134,88.84861 c -14.451247,-6.56832 -28.998915,-17.39242 -42.778665,-30.7016 z"
         id="path2812"
         sodipodi:nodetypes="ccccc" />
      <path
         style="fill:#0a0a00;fill-opacity:1;fill-rule:evenodd;stroke:none;stroke-width:1.84462px;stroke-linecap:butt;stroke-linejoin:miter;stroke-opacity:1"
         d="M 1.4314973,189.83796 0.84154318,358.37998 -39.865302,331.62394 -39.275347,218.91146 Z"
         id="path4094" />
      <path
         style="fill:#0a0a00;fill-opacity:1;fill-rule:evenodd;stroke:none;stroke-width:1.84462px;stroke-linecap:butt;stroke-linejoin:miter;stroke-opacity:1"
         d="M 21.88325,173.81149 V 357.53727 L 60.426932,329.72783 59.836967,147.07042 Z"
         id="path4129"
         sodipodi:nodetypes="ccccc" />
      <path
         style="fill:#0a0a00;fill-opacity:1;fill-rule:evenodd;stroke:none;stroke-width:1.84462px;stroke-linecap:butt;stroke-linejoin:miter;stroke-opacity:1"
         d="m 80.28872,132.11231 42.4767,-31.60163 c -15.09671,28.11757 -10.61364,46.6477 -1.49175,64.031 35.63009,47.06758 45.50163,92.03428 -4.01447,131.26708 -12.91303,8.95906 -25.854497,16.85656 -37.560427,21.91046 z"
         id="path4164"
         sodipodi:nodetypes="cccccc" />
    </g>
    <g
       id="g10559"
       inkscape:label="zodiaco"
       style="fill:#000600;fill-opacity:1;stroke:none"
       inkscape:groupmode="layer">
      <path
         style="fill:#000600;fill-opacity:1;fill-rule:evenodd;stroke:none;stroke-width:1.84462px;stroke-linecap:butt;stroke-linejoin:miter;stroke-opacity:1"
         d="m -111.63208,213.45935 2.08581,7.74651 12.931979,-9.08725 -1.251484,30.39017 6.674571,3.12842 17.93791,-12.06669 -1.94675,-7.00167 -11.263339,6.85269 0.695269,-28.45357 -8.065107,-4.76707 z"
         id="path4746"
         inkscape:label="z" />
      <path
         id="path5513"
         style="fill:#000600;fill-opacity:1;fill-rule:evenodd;stroke:none;stroke-width:0.453165;stroke-linecap:butt;stroke-linejoin:miter;stroke-miterlimit:4;stroke-dasharray:none;stroke-opacity:1"
         d="m -68.316893,183.81402 c 0,0 -0.05024,-4.00322 1.94675,-5.88438 1.47948,-1.39366 3.234973,-1.2579 5.909776,-0.0745 2.451539,0.30199 10.63038,8.08021 13.210086,14.15229 2.511728,5.91209 4.538861,13.40902 1.251483,19.44078 -5.626734,10.72632 -12.907794,11.06327 -20.162765,9.53419 -6.828494,-1.43918 -15.190633,-8.3544 -14.878731,-21.82434 1.266559,-14.23534 6.093612,-17.55348 12.723401,-15.34406 z m 1.321008,5.36297 c -1.438782,7.28395 -2.819126,14.16983 2.502965,19.88769 2.597089,2.25576 6.34065,4.46053 7.647945,-2.75597 1.540391,-8.27284 -5.745905,-11.95262 -10.15091,-17.13172 z"
         inkscape:label="o" />
      <path
         id="path5513-4"
         style="display:inline;fill:#000600;fill-opacity:1;fill-rule:evenodd;stroke:none;stroke-width:0.453165;stroke-linecap:butt;stroke-linejoin:miter;stroke-miterlimit:4;stroke-dasharray:none;stroke-opacity:1"
         d="m 73.378678,80.800216 c 0,0 -0.05026,-4.003216 1.946756,-5.884376 1.479474,-1.393662 3.234969,-1.257899 5.909771,-0.07448 2.451552,0.301989 10.630381,8.080205 13.210088,14.152293 2.511734,5.912087 4.538865,13.409017 1.251483,19.440767 -5.626729,10.72632 -12.907798,11.06327 -20.162759,9.5342 -6.828508,-1.43919 -15.190632,-8.3544 -14.878737,-21.824338 1.26656,-14.235344 6.093618,-17.553483 12.723398,-15.344066 z m 1.321005,5.362975 c -1.43877,7.283945 -2.819121,14.169829 2.502967,19.887689 2.5971,2.25576 6.340661,4.46052 7.647961,-2.75597 C 86.391,95.022072 79.104691,91.342287 74.699683,86.163191 Z"
         inkscape:label="o" />
      <path
         style="fill:#000600;fill-opacity:1;fill-rule:evenodd;stroke:none;stroke-width:0.184462;stroke-linecap:butt;stroke-linejoin:miter;stroke-miterlimit:4;stroke-dasharray:none;stroke-opacity:1"
         d="m -49.892297,180.31318 9.386114,-10.05557 c 3.893284,-1.75552 7.811483,-3.39981 12.792928,-0.29795 2.435337,3.24029 4.899289,7.63347 4.380188,11.84324 -0.340554,2.76179 -2.950792,6.55527 -4.658295,6.70372 -2.261857,0.19664 -7.111207,-7.91821 -8.273685,-15.86547 l -8.482269,0.0745 c -0.398488,4.94122 1.073146,10.35384 3.823973,16.08893 0,0 2.610417,6.79208 5.42309,8.34239 3.400572,1.87437 8.284408,0.71002 11.471917,-0.14892 8.417938,-3.93893 10.599236,-13.04081 10.915704,-23.68647 -2.23228,-10.64432 -8.539934,-13.95992 -15.921632,-15.34407 -7.149571,0.38162 -14.055895,3.02175 -20.649453,8.56586 l -4.449713,4.84158 c -0.01497,4.36034 0.992782,6.98777 4.241133,8.93827 z"
         id="path6836"
         sodipodi:nodetypes="cccascccacccccc"
         inkscape:label="d" />
      <path
         style="fill:#000600;fill-opacity:1;fill-rule:evenodd;stroke:none;stroke-width:0.184462;stroke-linecap:butt;stroke-linejoin:miter;stroke-miterlimit:4;stroke-dasharray:none;stroke-opacity:1"
         d="m -17.979505,145.23039 c 1.228306,-3.09168 3.777621,-4.03639 5.770722,-5.43746 l 4.7973479,-0.14896 14.1139363,29.42188 c 0.4639379,2.14142 1.5597143,4.22644 -0.069522,6.55474 l -6.46598923,3.27738 c -2.06969057,-0.17579 -4.08794467,-1.0743 -4.86687507,-2.83046 z"
         id="path8215"
         sodipodi:nodetypes="cccccccc"
         inkscape:label="i" />
      <path
         id="path8712"
         style="fill:#000600;fill-opacity:1;fill-rule:evenodd;stroke:none;stroke-width:0.184462;stroke-linecap:butt;stroke-linejoin:miter;stroke-miterlimit:4;stroke-dasharray:none;stroke-opacity:1"
         d="m 17.96584,142.92134 2.850594,-2.38355 -3.68491,-4.09672 z m 7.873404,4.15842 6.101478,8.20621 9.664221,-6.62923 -25.168692,-27.93216 -11.7500274,6.85269 3.5458734,22.42021 -3.7544516,2.90495 2.4334286,7.821 3.476344,-2.38354 1.321006,7.74652 9.177532,-2.68149 -1.529607,-10.80792 z"
         inkscape:label="a"
         sodipodi:nodetypes="ccccccccccccccccc" />
      <path
         style="fill:#000600;fill-opacity:1;fill-rule:evenodd;stroke:none;stroke-width:0.184462;stroke-linecap:butt;stroke-linejoin:miter;stroke-miterlimit:4;stroke-dasharray:none;stroke-opacity:1"
         d="m 49.391948,112.00975 c 2.932306,-1.21117 5.484709,-3.01433 6.39646,-7.37409 l -5.701205,-6.927178 c -4.081743,0.0841 -7.688114,0.777948 -12.028126,2.979428 -3.28544,3.1627 -7.409955,10.15504 -6.744088,18.47247 2.831632,12.67949 8.857992,17.49242 13.001486,19.44078 3.841615,1.80641 8.809357,1.7375 12.584373,-0.22345 3.364389,-1.74767 4.473336,-3.98507 7.091714,-9.31072 0.891791,-1.81388 0.385196,-9.19794 -0.764776,-9.31073 0.02424,-1.41274 -1.40662,-2.54524 -2.989673,-3.57531 l -6.883149,5.43746 c 0.03867,2.26059 1.224804,6.45312 0.0695,6.70372 -2.906287,1.47252 -4.86689,0.0745 -6.674584,-1.78766 -2.316963,-3.34912 -3.702696,-7.98094 -4.72781,-13.10949 0.178038,-2.44309 0.811291,-5.10096 2.711533,-5.51195 1.969228,-0.42591 3.573846,2.45178 4.658341,4.09672 z"
         id="path9066"
         sodipodi:nodetypes="cccccsasccccccac"
         inkscape:label="c" />
    </g>
    <g
       id="g1841"
       inkscape:label="estrelas"
       transform="matrix(0.28535414,0,0,0.28029357,70.059729,8.3217729)"
       inkscape:groupmode="layer">
      <path
         style="fill:#ffffff;fill-opacity:1;fill-rule:evenodd;stroke:none;stroke-width:1.84462px;stroke-linecap:butt;stroke-linejoin:miter;stroke-opacity:1"
         d="m -209.26497,1.8336603 23.45957,-3.8999215 8.89847,-22.9662018 11.52755,24.04951262 23.66181,2.59994698 -18.40363,17.9829694 4.65146,24.049512 -20.83048,-11.049775 -20.83049,11.049775 3.64028,-24.916161 z"
         id="path1524" />
      <path
         style="fill:#ffffff;fill-opacity:1;fill-rule:evenodd;stroke:none;stroke-width:1.84462px;stroke-linecap:butt;stroke-linejoin:miter;stroke-opacity:1"
         d="m -126.14525,-23.190833 23.45956,-3.899921 8.898468,-22.966201 11.527554,24.049512 23.661808,2.599947 -18.403628,17.9829688 4.651462,24.0495122 L -93.180505,7.5752097 -114.011,18.624985 l 3.64028,-24.9161612 z"
         id="path1524-5" />
      <path
         style="fill:#ffffff;fill-opacity:1;fill-rule:evenodd;stroke:none;stroke-width:1.84462px;stroke-linecap:butt;stroke-linejoin:miter;stroke-opacity:1"
         d="m -312.4062,1.2920049 23.45957,-3.8999214 8.89846,-22.9662015 11.52756,24.0495122 23.66181,2.599947 -18.40363,17.9829688 4.65146,24.049513 -20.83048,-11.049775 -20.8305,11.049775 3.64029,-24.916162 z"
         id="path1524-2" />
      <path
         style="fill:#ffffff;fill-opacity:1;fill-rule:evenodd;stroke:none;stroke-width:1.84462px;stroke-linecap:butt;stroke-linejoin:miter;stroke-opacity:1"
         d="m -398.55948,-24.707469 23.45957,-3.899921 8.89846,-22.966202 11.52756,24.049512 23.66181,2.599947 -18.40363,17.9829696 4.65146,24.0495124 -20.83048,-11.0497755 -20.83049,11.0497755 3.64028,-24.9161614 z"
         id="path1524-27" />
    </g>
  </g>
</svg>
