<?xml version="1.0" encoding="UTF-8" standalone="no"?>
<!-- Created with Inkscape (http://www.inkscape.org/) -->

<svg
   version="1.1"
   id="svg99"
   width="773.05261"
   height="682.10529"
   viewBox="0 0 773.05261 682.10529"
   sodipodi:docname="logo3.svg"
   inkscape:export-filename="C:\xampp\htdocs\clinica\public\images\logo4.png"
   inkscape:export-xdpi="95"
   inkscape:export-ydpi="95"
   inkscape:version="1.1.2 (b8e25be833, 2022-02-05)"
   xmlns:inkscape="http://www.inkscape.org/namespaces/inkscape"
   xmlns:sodipodi="http://sodipodi.sourceforge.net/DTD/sodipodi-0.dtd"
   xmlns="http://www.w3.org/2000/svg"
   xmlns:svg="http://www.w3.org/2000/svg">
  <defs
     id="defs103" />
  <sodipodi:namedview
     id="namedview101"
     pagecolor="#ffffff"
     bordercolor="#666666"
     borderopacity="1.0"
     inkscape:pageshadow="2"
     inkscape:pageopacity="0.0"
     inkscape:pagecheckerboard="true"
     showgrid="false"
     inkscape:zoom="0.67486138"
     inkscape:cx="358.59216"
     inkscape:cy="324.51109"
     inkscape:window-width="1360"
     inkscape:window-height="705"
     inkscape:window-x="-1368"
     inkscape:window-y="-8"
     inkscape:window-maximized="1"
     inkscape:current-layer="g105" />
  <g
     inkscape:groupmode="layer"
     inkscape:label="Image"
     id="g105">
    <g
       id="g8892"
       inkscape:label="cerebro"
       transform="matrix(1.0870626,0,0,1.0177881,-35.60926,3.6589364)">
      <g
         transform="matrix(1.1190668,0,0,1.1520631,-171.68009,-166.57625)"
         id="g8944"
         style="fill:#000000;fill-opacity:1"
         inkscape:label="cerebroD">
        <path
           sodipodi:nodetypes="ccssc"
           inkscape:connector-curvature="0"
           id="path8930"
           d="m 512.77214,227.70934 c 14.107,-2.1804 22.8994,-1.04622 28.45124,7.98358 9.10278,-9.36668 18.62568,-21.26383 9.7418,-36.53175 -6.59075,-11.32692 -21.07713,-15.81315 -31.55014,-8.63478 -9.39293,6.43807 -6.6429,37.18295 -6.6429,37.18295 z"
           style="fill:#000000;fill-opacity:1;stroke:none;stroke-width:1px;stroke-linecap:butt;stroke-linejoin:miter;stroke-opacity:1" />
        <path
           sodipodi:nodetypes="csccccsccccccccccsccccccc"
           inkscape:connector-curvature="0"
           id="path8932"
           d="m 558.60364,201.59662 c 22.36316,-0.0741 30.6199,19.46537 27.34346,36.08894 -1.77276,8.99441 -12.1249,12.67998 -18.81939,13.17357 l 2.98896,4.53879 c 17.28205,-3.83175 24.82133,-14.39748 22.02976,-32.10365 9.54355,5.04894 19.31943,9.81716 15.0555,31.55014 13.09973,9.24555 12.72817,24.26532 1.43913,31.21804 -8.83957,5.44414 -27.3984,-0.36882 -26.90065,-17.71236 l -5.203,-1.77124 c -1.72865,9.33181 1.58202,17.08883 9.29899,23.46888 -2.8912,12.05323 -10.95238,15.83448 -22.69397,13.72708 l -2.65685,-2.54615 c 2.32346,-5.09212 5.06851,-10.24447 5.42441,-15.05551 l -4.6495,-0.55351 c -2.37756,9.69315 -5.90241,18.6111 -19.04079,21.03343 -12.93188,3.61773 -23.11663,0.61736 -29.5575,-11.40233 l -0.0704,-62.67091 c 17.89384,-3.23886 30.5101,4.7417 29.40652,23.59301 -0.14754,2.52027 -7.91612,5.81054 -10.40601,8.63478 l 2.65685,3.21036 c 7.68401,-5.62771 15.30321,-12.08178 24.13309,-3.09966 l 4.98161,-2.76756 c -3.53018,-2.95206 -7.17007,-5.82667 -15.60902,-5.31371 l -3.43177,-16.71604 c 22.63581,-16.12685 14.44211,-22.6339 14.28059,-38.52439 z"
           style="fill:#000000;fill-opacity:1;stroke:none;stroke-width:1px;stroke-linecap:butt;stroke-linejoin:miter;stroke-opacity:1" />
        <path
           sodipodi:nodetypes="ccccccccccccccccccccc"
           inkscape:connector-curvature="0"
           id="path8934"
           d="m 616.67663,320.3149 c 13.00386,-13.65237 10.02929,-24.69009 0.15656,-34.59902 -7.19838,6.90141 -15.81648,8.12389 -25.51873,5.00981 -6.40593,20.07237 -19.98474,20.33395 -35.06869,16.43845 -13.93831,4.49479 -28.08064,11.45602 -43.62559,-3.7305 l -0.0537,46.78358 37.41703,-8.76718 c -6.98345,7.52193 -9.88973,14.48231 -8.2975,21.44827 l 4.54014,-0.46967 c 13.20131,0.089 23.10738,4.25781 27.55397,15.18599 10.72054,-16.64499 1.28116,-24.08653 -6.57538,-32.25067 -4.38314,3.86261 -9.08766,7.08248 -14.71632,8.45406 v -5.16637 c 0.17708,-0.79687 17.5902,-4.54435 15.18599,-25.36218 l 5.16637,0.62623 c 0.72972,5.54051 -1.67183,11.60291 -3.28769,17.53435 9.13341,9.0671 20.12045,17.212 11.27208,35.22524 24.15133,-4.68454 40.45619,-36.17633 2.50491,-55.73416 l 0.15655,-4.07048 c 14.10321,2.3402 21.3669,12.82269 26.77119,25.51874 7.98004,-6.1286 5.82748,-14.39038 6.41882,-22.07449 z"
           style="fill:#000000;fill-opacity:1;stroke:none;stroke-width:1px;stroke-linecap:butt;stroke-linejoin:miter;stroke-opacity:1" />
        <path
           sodipodi:nodetypes="ccccccc"
           inkscape:connector-curvature="0"
           id="path8936"
           d="m 512.64474,355.22703 25.75357,-6.41882 c -4.48578,5.48626 -4.95697,12.15329 -2.34835,19.72614 14.56041,-1.81258 27.70196,-0.45359 35.22525,13.46387 -5.10908,8.1156 -11.57819,15.49887 -27.39742,17.84746 -16.76491,0.71361 -25.78035,-8.2792 -31.31133,-22.54416 z"
           style="fill:#000000;fill-opacity:1;stroke:none;stroke-width:1px;stroke-linecap:butt;stroke-linejoin:miter;stroke-opacity:1" />
      </g>
      <g
         transform="matrix(-1.1190668,0,0,1.1520631,972.67566,-171.29126)"
         id="g1072"
         style="fill:#000000;fill-opacity:1"
         inkscape:label="cerebroE">
        <path
           sodipodi:nodetypes="ccssc"
           inkscape:connector-curvature="0"
           id="path1064"
           d="m 512.77214,227.70934 c 14.107,-2.1804 22.8994,-1.04622 28.45124,7.98358 9.10278,-9.36668 18.62568,-21.26383 9.7418,-36.53175 -6.59075,-11.32692 -21.07713,-15.81315 -31.55014,-8.63478 -9.39293,6.43807 -6.6429,37.18295 -6.6429,37.18295 z"
           style="fill:#000000;fill-opacity:1;stroke:none;stroke-width:1px;stroke-linecap:butt;stroke-linejoin:miter;stroke-opacity:1" />
        <path
           sodipodi:nodetypes="csccccsccccccccccsccccccc"
           inkscape:connector-curvature="0"
           id="path1066"
           d="m 558.60364,201.59662 c 22.36316,-0.0741 30.6199,19.46537 27.34346,36.08894 -1.77276,8.99441 -12.1249,12.67998 -18.81939,13.17357 l 2.98896,4.53879 c 17.28205,-3.83175 24.82133,-14.39748 22.02976,-32.10365 9.54355,5.04894 19.31943,9.81716 15.0555,31.55014 13.09973,9.24555 12.72817,24.26532 1.43913,31.21804 -8.83957,5.44414 -27.3984,-0.36882 -26.90065,-17.71236 l -5.203,-1.77124 c -1.72865,9.33181 1.58202,17.08883 9.29899,23.46888 -2.8912,12.05323 -10.95238,15.83448 -22.69397,13.72708 l -2.65685,-2.54615 c 2.32346,-5.09212 5.06851,-10.24447 5.42441,-15.05551 l -4.6495,-0.55351 c -2.37756,9.69315 -5.90241,18.6111 -19.04079,21.03343 -12.93188,3.61773 -23.11663,0.61736 -29.5575,-11.40233 l -0.0704,-62.67091 c 17.89384,-3.23886 30.5101,4.7417 29.40652,23.59301 -0.14754,2.52027 -7.91612,5.81054 -10.40601,8.63478 l 2.65685,3.21036 c 7.68401,-5.62771 15.30321,-12.08178 24.13309,-3.09966 l 4.98161,-2.76756 c -3.53018,-2.95206 -7.17007,-5.82667 -15.60902,-5.31371 l -3.43177,-16.71604 c 22.63581,-16.12685 14.44211,-22.6339 14.28059,-38.52439 z"
           style="fill:#000000;fill-opacity:1;stroke:none;stroke-width:1px;stroke-linecap:butt;stroke-linejoin:miter;stroke-opacity:1" />
        <path
           sodipodi:nodetypes="ccccccccccccccccccccc"
           inkscape:connector-curvature="0"
           id="path1068"
           d="m 616.67663,320.3149 c 13.00386,-13.65237 10.02929,-24.69009 0.15656,-34.59902 -7.19838,6.90141 -15.81648,8.12389 -25.51873,5.00981 -6.40593,20.07237 -19.98474,20.33395 -35.06869,16.43845 -13.93831,4.49479 -28.08064,11.45602 -43.62559,-3.7305 l -0.0537,46.78358 37.41703,-8.76718 c -6.98345,7.52193 -9.88973,14.48231 -8.2975,21.44827 l 4.54014,-0.46967 c 13.20131,0.089 23.10738,4.25781 27.55397,15.18599 10.72054,-16.64499 1.28116,-24.08653 -6.57538,-32.25067 -4.38314,3.86261 -9.08766,7.08248 -14.71632,8.45406 v -5.16637 c 0.17708,-0.79687 17.5902,-4.54435 15.18599,-25.36218 l 5.16637,0.62623 c 0.72972,5.54051 -1.67183,11.60291 -3.28769,17.53435 9.13341,9.0671 20.12045,17.212 11.27208,35.22524 24.15133,-4.68454 40.45619,-36.17633 2.50491,-55.73416 l 0.15655,-4.07048 c 14.10321,2.3402 21.3669,12.82269 26.77119,25.51874 7.98004,-6.1286 5.82748,-14.39038 6.41882,-22.07449 z"
           style="fill:#000000;fill-opacity:1;stroke:none;stroke-width:1px;stroke-linecap:butt;stroke-linejoin:miter;stroke-opacity:1" />
        <path
           sodipodi:nodetypes="ccccccc"
           inkscape:connector-curvature="0"
           id="path1070"
           d="m 512.64474,355.22703 25.75357,-6.41882 c -4.48578,5.48626 -4.95697,12.15329 -2.34835,19.72614 14.56041,-1.81258 27.70196,-0.45359 35.22525,13.46387 -5.10908,8.1156 -11.57819,15.49887 -27.39742,17.84746 -16.76491,0.71361 -25.78035,-8.2792 -31.31133,-22.54416 z"
           style="fill:#000000;fill-opacity:1;stroke:none;stroke-width:1px;stroke-linecap:butt;stroke-linejoin:miter;stroke-opacity:1" />
      </g>
    </g>
    <path
       style="fill:#000000;fill-opacity:1;fill-rule:evenodd;stroke:none;stroke-width:1px;stroke-linecap:butt;stroke-linejoin:miter;stroke-opacity:1"
       d="M 755.71075,243.01287 C 701.9567,102.46547 591.11206,31.983786 445.27663,4.4453574 353.87525,-6.7709262 265.20175,4.3814584 180.77787,50.380717 96.618667,99.944121 22.119972,164.2083 1.4817858,310.43412 c -11.42394,69.3047 38.9943812,82.14472 90.3889332,94.0934 70.847471,4.69565 144.228781,-10.87949 217.822511,-28.15393 101.66963,-22.15511 202.65104,-41.55731 301.54341,-52.6034 42.60687,2.53868 92.854,-8.11947 121.50643,18.52233 18.85688,16.70598 24.81442,46.31129 -2.22268,108.91125 -23.65634,58.2984 -67.74479,98.71872 -113.35661,137.80608 -52.81641,28.47017 -91.73451,61.78859 -201.52287,70.38482 C 348.20556,664.5503 284.28948,656.80192 225.23144,631.24074 113.36723,580.3826 77.718931,521.35846 42.230895,462.31716 l -16.299644,8.14983 c 25.566866,39.37613 50.479404,78.67046 97.797859,120.76554 50.19998,37.80623 105.2103,69.42774 174.85073,82.23911 80.76084,21.01308 155.8318,7.88684 229.67679,-12.59518 63.44454,-16.40854 95.12103,-45.52431 131.87894,-72.6075 49.61699,-42.13484 81.1866,-92.00427 101.50232,-146.6968 12.67747,-37.63461 20.49739,-74.45963 -8.14982,-105.20679 -26.17821,-31.05585 -52.35643,-30.47218 -78.53464,-34.82196 -53.34429,-6.45061 -106.68858,4.46491 -160.03287,11.11339 -78.53465,9.21121 -157.06929,30.4503 -235.60394,45.93536 -62.1938,15.70311 -125.42584,24.6576 -190.409473,22.22679 C 20.600141,377.01422 20.842258,342.74322 26.672144,305.98876 39.755133,202.83627 102.05298,129.75952 190.40947,72.607503 278.55803,26.372619 360.26431,20.938846 440.09038,27.413037 661.53395,62.466976 689.1124,162.31526 740.152,246.71733 Z"
       id="path1714"
       sodipodi:nodetypes="ccccccccccccccccccccccccccccc"
       inkscape:label="esse" />
    <g
       id="g4794"
       inkscape:label="simone"
       transform="matrix(0.6983033,0,0,0.80603573,25.199736,134.5337)"
       style="fill:none;fill-opacity:1;stroke:#010000;stroke-width:7.99746;stroke-miterlimit:4;stroke-dasharray:none;stroke-opacity:1"
       inkscape:export-filename="C:\xampp\htdocs\clinica\public\images\logobranco2.png"
       inkscape:export-xdpi="95"
       inkscape:export-ydpi="95">
      <path
         sodipodi:nodetypes="cccccccccc"
         inkscape:connector-curvature="0"
         id="path4764"
         d="m 222.05116,360.27041 -0.16689,-6.84262 c -3.83118,-5.78381 -9.66226,-7.64698 -20.6113,-3.4213 -25.76461,10.08585 -49.63546,23.01233 -65.42206,48.06519 -5.39608,10.05281 -3.30848,18.05128 7.3433,23.6988 l 33.3786,13.01766 c 19.93688,7.41369 29.98884,20.75579 17.02309,45.06111 -10.9246,15.4808 -25.30216,29.85572 -41.55637,33.87929 -11.07111,2.67069 -12.56973,-1.83798 -5.84125,-12.51698 22.43254,-28.21846 55.24837,-50.09158 85.11544,-73.76671"
         style="fill:none;fill-opacity:1;stroke:#010000;stroke-width:7.99746;stroke-linecap:butt;stroke-linejoin:miter;stroke-miterlimit:4;stroke-dasharray:none;stroke-opacity:1" />
      <path
         sodipodi:nodetypes="cccc"
         inkscape:connector-curvature="0"
         id="path4766"
         d="m 244.75519,426.61043 -2.24221,11.6831 c -2.22806,18.00476 6.78407,15.64409 18.76378,2.95028 5.30201,-5.4046 7.27035,-9.14237 10.85703,-13.6893"
         style="fill:none;fill-opacity:1;stroke:#010000;stroke-width:7.99746;stroke-linecap:butt;stroke-linejoin:miter;stroke-miterlimit:4;stroke-dasharray:none;stroke-opacity:1" />
      <path
         sodipodi:nodetypes="cc"
         inkscape:connector-curvature="0"
         id="path4768"
         d="m 245.58127,416.57947 3.42232,-2.59624"
         style="fill:none;fill-opacity:1;stroke:#010000;stroke-width:7.99746;stroke-linecap:butt;stroke-linejoin:miter;stroke-miterlimit:4;stroke-dasharray:none;stroke-opacity:1" />
      <path
         sodipodi:nodetypes="csssccc"
         inkscape:connector-curvature="0"
         id="path4770"
         d="m 289.83546,416.93351 c -6.25268,13.54948 -12.83458,36.95182 -10.85703,39.65175 0.40406,0.55166 18.57744,-35.04964 19.82588,-30.44688 2.97609,10.97221 -0.49996,21.19813 3.1863,21.124 4.10673,-0.0826 12.9133,-25.42452 13.6893,-22.89417 2.46539,28.65712 13.41232,15.91976 20.17991,11.21106 3.76991,-3.42661 4.87834,-4.98707 6.2546,-7.19868"
         style="fill:none;fill-opacity:1;stroke:#010000;stroke-width:7.99746;stroke-linecap:butt;stroke-linejoin:miter;stroke-miterlimit:4;stroke-dasharray:none;stroke-opacity:1" />
      <path
         sodipodi:nodetypes="cssssc"
         inkscape:connector-curvature="0"
         id="path4772"
         d="m 360.05211,425.66633 c -8.97371,3.87695 -9.59655,18.73582 -3.54033,21.83207 8.38775,4.28824 16.40755,-10.82195 12.86322,-21.124 -2.54408,-7.39469 -10.93273,-5.63646 -9.08686,3.89437 2.25956,11.66688 16.18374,11.35098 22.42212,6.84465 4.0468,-2.92324 6.16519,-5.52507 8.3788,-8.14277"
         style="fill:none;fill-opacity:1;stroke:#010000;stroke-width:7.99746;stroke-linecap:butt;stroke-linejoin:miter;stroke-miterlimit:4;stroke-dasharray:none;stroke-opacity:1" />
      <path
         sodipodi:nodetypes="csssc"
         inkscape:connector-curvature="0"
         id="path4774"
         d="m 407.96466,416.93351 c -3.30432,13.02057 -8.9896,27.02279 -9.91294,39.0617 -0.48241,6.28988 10.92421,-29.68594 17.70167,-29.73882 4.4221,-0.0345 5.54479,18.09808 12.50919,20.0619 7.63997,2.15432 16.63957,-18.52775 16.63957,-18.52775"
         style="fill:none;fill-opacity:1;stroke:#010000;stroke-width:7.99746;stroke-linecap:butt;stroke-linejoin:miter;stroke-miterlimit:4;stroke-dasharray:none;stroke-opacity:1" />
      <path
         sodipodi:nodetypes="cscsc"
         inkscape:connector-curvature="0"
         id="path4776"
         d="m 456.34924,429.79673 c 5.09055,-1.84995 20.74316,-19.9272 13.57129,-19.58986 -10.80696,0.50833 -16.27278,24.38185 -16.87561,33.63319 1.45402,16.74367 10.3558,12.80879 18.29174,6.84464 8.54335,-6.42063 14.16019,-14.34077 19.35383,-22.54013"
         style="fill:none;fill-opacity:1;stroke:#010000;stroke-width:7.99746;stroke-linecap:butt;stroke-linejoin:miter;stroke-miterlimit:4;stroke-dasharray:none;stroke-opacity:1" />
      <path
         style="fill:none;fill-opacity:1;stroke:#010000;stroke-width:7.99746;stroke-linecap:butt;stroke-linejoin:miter;stroke-miterlimit:4;stroke-dasharray:none;stroke-opacity:1"
         d="m 599.73283,352.14537 -1.65216,-8.26078 c -2.17037,-10.8518 -29.36222,89.75581 -41.06789,135.94888 -4.84055,16.65823 -4.2512,28.61104 17.70168,17.22963 20.88403,-10.92782 43.64641,-25.61231 59.24161,-25.96246"
         id="path4778"
         inkscape:connector-curvature="0"
         sodipodi:nodetypes="csccc" />
      <path
         sodipodi:nodetypes="cssssc"
         inkscape:connector-curvature="0"
         id="path4780"
         d="m 642.85327,424.8135 c -8.97371,3.87695 -9.59655,18.73582 -3.54033,21.83207 8.38775,4.28824 16.40755,-10.82195 12.86322,-21.124 -2.54408,-7.39469 -10.93273,-5.63646 -9.08686,3.89437 2.25956,11.66688 16.18374,11.35098 22.42212,6.84465 4.0468,-2.92324 6.16519,-5.52507 8.3788,-8.14277"
         style="fill:none;fill-opacity:1;stroke:#010000;stroke-width:7.99746;stroke-linecap:butt;stroke-linejoin:miter;stroke-miterlimit:4;stroke-dasharray:none;stroke-opacity:1" />
      <path
         style="fill:none;fill-opacity:1;stroke:#010000;stroke-width:7.99746;stroke-linecap:butt;stroke-linejoin:miter;stroke-miterlimit:4;stroke-dasharray:none;stroke-opacity:1"
         d="m 688.93436,427.44485 6.17504,-11.68251 c 6.76117,-14.5915 0.44903,-14.59801 -5.67436,-6.34194 -9.87275,13.31128 -2.14079,26.03745 6.84262,19.86027 19.36815,-13.31793 11.25045,-3.93617 9.17911,3.83854 -3.19451,6.27132 -5.12194,16.34386 -7.00951,26.53599 -0.71445,13.04341 2.88328,12.62387 11.01494,4.33922 10.2581,-11.23307 15.53337,-23.4627 21.5292,-35.54822"
         id="path4782"
         inkscape:connector-curvature="0"
         sodipodi:nodetypes="ccsscccc" />
      <path
         sodipodi:nodetypes="cscsc"
         inkscape:connector-curvature="0"
         id="path4784"
         d="m 743.52946,428.2378 c 5.09055,-1.84995 20.74316,-19.9272 13.57129,-19.58986 -10.80696,0.50833 -16.27278,24.38185 -16.87561,33.63319 1.45402,16.74367 10.3558,12.80879 18.29174,6.84464 8.54335,-6.42063 14.16019,-14.34077 19.35383,-22.54013"
         style="fill:none;fill-opacity:1;stroke:#010000;stroke-width:7.99746;stroke-linecap:butt;stroke-linejoin:miter;stroke-miterlimit:4;stroke-dasharray:none;stroke-opacity:1" />
      <path
         sodipodi:nodetypes="cssssc"
         inkscape:connector-curvature="0"
         id="path4786"
         d="m 852.08091,426.8135 c -8.97371,3.87695 -9.59655,18.73582 -3.54033,21.83207 8.38775,4.28824 16.40755,-10.82195 12.86322,-21.124 -2.54408,-7.39469 -10.93273,-5.63646 -9.08686,3.89437 2.25956,11.66688 16.18374,11.35098 22.42212,6.84465 4.0468,-2.92324 6.16519,-5.52507 8.3788,-8.14277"
         style="fill:none;fill-opacity:1;stroke:#010000;stroke-width:7.99746;stroke-linecap:butt;stroke-linejoin:miter;stroke-miterlimit:4;stroke-dasharray:none;stroke-opacity:1" />
      <path
         style="fill:none;fill-opacity:1;stroke:#010000;stroke-width:7.99746;stroke-linecap:butt;stroke-linejoin:miter;stroke-miterlimit:4;stroke-dasharray:none;stroke-opacity:1"
         d="m 758.02807,388.39188 144.52935,-2.00272 4.00543,1.33515"
         id="path4788"
         inkscape:connector-curvature="0" />
      <path
         style="fill:none;fill-opacity:1;stroke:#010000;stroke-width:7.99746;stroke-linecap:butt;stroke-linejoin:miter;stroke-miterlimit:4;stroke-dasharray:none;stroke-opacity:1"
         d="m 807.23287,359.93908 c -13.71298,53.88262 -38.22153,163.72608 -33.51686,158.62935 l 4.00543,-4.33922"
         id="path4790"
         inkscape:connector-curvature="0"
         sodipodi:nodetypes="csc" />
      <path
         style="fill:none;fill-opacity:1;stroke:#010000;stroke-width:7.99746;stroke-linecap:butt;stroke-linejoin:miter;stroke-miterlimit:4;stroke-dasharray:none;stroke-opacity:1"
         d="m 836.55923,360.51676 c -13.71298,53.88262 -38.22153,163.72608 -33.51686,158.62935 l 4.00543,-4.33922"
         id="path4792"
         inkscape:connector-curvature="0"
         sodipodi:nodetypes="csc" />
    </g>
  </g>
</svg>
